<?xml version="1.0" standalone="no"?>
<!DOCTYPE svg PUBLIC "-//W3C//DTD SVG 20010904//EN"
 "http://www.w3.org/TR/2001/REC-SVG-20010904/DTD/svg10.dtd">
<svg version="1.0" xmlns="http://www.w3.org/2000/svg"
 width="700.000000pt" height="700.000000pt" viewBox="0 0 700.000000 700.000000"
 preserveAspectRatio="xMidYMid meet">
<metadata>
Created by potrace 1.14, written by Peter Selinger 2001-2017
</metadata>
<g transform="translate(0.000000,700.000000) scale(0.100000,-0.100000)"
fill="#000000" stroke="none">
<path d="M3713 6424 c-242 -50 -422 -265 -429 -512 -5 -175 64 -330 194 -437
113 -93 239 -132 390 -122 142 10 241 56 342 157 249 251 201 656 -102 847
-108 68 -263 95 -395 67z"/>
<path d="M3240 5163 c-59 -10 -136 -36 -213 -72 -157 -73 -600 -283 -616 -291
-9 -5 -54 -27 -101 -49 -98 -46 -148 -85 -190 -146 -16 -24 -70 -137 -119
-252 -49 -114 -96 -224 -104 -243 -8 -19 -22 -51 -30 -70 -9 -19 -46 -105 -83
-190 -59 -136 -67 -163 -68 -220 -1 -52 4 -73 22 -103 32 -50 83 -88 139 -102
57 -15 108 -6 167 29 42 25 51 37 105 149 74 154 141 298 141 303 0 4 62 137
124 264 l31 65 250 82 c137 45 251 81 253 79 1 -2 -13 -75 -33 -162 -20 -88
-38 -168 -41 -179 -2 -11 -26 -121 -54 -245 -28 -124 -100 -445 -161 -715 -60
-269 -114 -506 -119 -525 -5 -19 -11 -46 -14 -60 -2 -14 -11 -55 -20 -91 -8
-37 -17 -78 -20 -90 -22 -117 -70 -249 -287 -790 -137 -342 -252 -643 -257
-669 -16 -89 30 -194 107 -246 51 -33 144 -57 197 -50 23 2 61 14 85 26 46 24
109 85 109 106 0 8 5 14 10 14 6 0 10 4 10 9 0 7 129 235 171 301 17 27 251
433 282 490 17 30 44 78 62 105 17 28 112 210 209 405 98 195 180 357 182 359
5 5 31 -22 137 -141 37 -42 80 -89 95 -105 15 -16 61 -66 102 -112 41 -46 84
-93 95 -105 11 -12 56 -62 100 -111 44 -48 86 -94 93 -101 12 -12 36 -61 157
-319 18 -38 73 -155 123 -260 49 -104 108 -230 131 -280 89 -191 108 -219 170
-257 131 -81 309 -28 373 112 11 24 21 67 23 95 2 52 -6 79 -194 620 -43 127
-105 304 -136 395 -63 183 -109 279 -188 393 -42 61 -250 340 -304 407 -6 8
-78 103 -158 210 -158 210 -150 194 -130 290 3 14 8 41 11 60 4 19 8 44 11 55
2 11 8 45 14 75 6 30 33 170 60 310 27 140 52 269 55 285 8 49 36 180 38 182
1 1 60 -73 131 -164 72 -92 146 -182 165 -200 40 -38 101 -69 456 -229 140
-62 273 -123 296 -135 65 -32 154 -36 205 -11 152 78 159 290 13 368 -19 11
-73 40 -120 65 -47 25 -157 83 -245 129 -88 45 -183 95 -211 111 -57 32 -35
-6 -234 404 -57 116 -123 241 -148 278 -83 125 -206 236 -342 310 -65 35 -188
81 -245 91 -16 2 -68 12 -115 21 -47 9 -101 19 -120 21 -19 3 -49 9 -65 13
-33 9 -185 12 -225 4z"/>
</g>
</svg>
